<svg xmlns="http://www.w3.org/2000/svg" viewBox="0 0 100 100" xml:space="preserve"><path fill="#a0c8d7" d="M51.8 50V22.8l9.8-9.7-2.6-2.6-7.2 7.2V7.5h-3.6v10.2L41 10.5l-2.6 2.6 9.8 9.7v54.4l-9.8 9.7 2.6 2.6 7.2-7.2v10.2h3.6V82.3l7.2 7.2 2.6-2.6-9.8-9.7z"/><path fill="#a0c8d7" d="M88.7 61.9l-.9-3.5L74.4 62 50.9 48.4 27.4 34.8l-3.6-13.3-3.5.9 2.6 9.9-8.8-5.1-1.8 3.1 8.8 5.1-9.8 2.7.9 3.5L25.6 38l23.5 13.6 23.5 13.6 3.6 13.3 3.5-.9-2.6-9.9 8.8 5.1 1.8-3.1-8.8-5.1z"/><path fill="#a0c8d7" d="M88.7 38.1l-9.8-2.7 8.8-5.1-1.8-3.1-8.8 5.1 2.6-9.9-3.5-.9-3.6 13.3-23.5 13.6L25.6 62l-13.4-3.6-.9 3.5 9.8 2.7-8.8 5.1 1.8 3.1 8.8-5.1-2.6 9.9 3.5.9 3.6-13.3 23.5-13.6L74.4 38l13.4 3.6z"/></svg>
