<svg xmlns="http://www.w3.org/2000/svg" viewBox="0 0 100 100" xml:space="preserve"><path d="M24.6 79.4C21.4 74 20 67.2 21.8 61.1c1.7-5.6 5.5-10.4 9.3-14.7 4.2-4.9 8.9-9.6 11.5-15.6 3.2-7.4 2.7-16.3-1.3-23.3 2.2 2.1 5.2 3 7.9 4.3 5.7 2.7 10.5 7.5 12.8 13.4 2.3 5.9 2 12.8-1.2 18.3-3.6 6.3-11.1 10.2-12.3 17.8-.4 2.9.6 6.2 3.3 7.5.9.4 1.9.6 2.9.6 3.8-.1 7.3-2.6 9.5-5.8 3.8-5.3 3.8-10.9 2.9-17.1 1.7.4 3.6 2.8 4.7 4.1 5.2 5.9 8.9 15.4 6.5 23.2-1.6 5-5.1 9.3-9.3 12.4-8.5 6.3-20.1 8-30 4.4-6-2-11.2-5.9-14.4-11.2z" fill-rule="evenodd" clip-rule="evenodd" fill="#e15b64"/></svg>
